<?xml version="1.0" encoding="UTF-8" standalone="no"?> <svg xmlns="http://www.w3.org/2000/svg" viewBox="0 0 64 64"><g id="Layer_33" data-name="Layer 33"><path d="M32,37a5,5,0,1,1,5-5A5,5,0,0,1,32,37Zm0-8.48A3.49,3.49,0,1,0,35.49,32,3.5,3.5,0,0,0,32,28.51Z"/><path d="M32,21.23a5,5,0,1,1,5-5A5,5,0,0,1,32,21.23Zm0-8.48a3.49,3.49,0,1,0,3.49,3.49A3.5,3.5,0,0,0,32,12.75Z"/><path d="M32,52.75a5,5,0,1,1,5-5A5,5,0,0,1,32,52.75Zm0-8.48a3.49,3.49,0,1,0,3.49,3.49A3.5,3.5,0,0,0,32,44.27Z"/><path d="M32,60.75A28.75,28.75,0,1,1,60.75,32,28.79,28.79,0,0,1,32,60.75Zm0-56A27.25,27.25,0,1,0,59.25,32,27.28,27.28,0,0,0,32,4.75Z"/></g></svg>